<svg width="80" height="80" viewBox="0 0 80 80" fill="none" xmlns="http://www.w3.org/2000/svg">
<path d="M34 16C35.1046 16 36 16.8954 36 18V42C36 43.1046 36.8954 44 38 44H61C62.6569 44 64 45.3431 64 47V61C64 62.6569 62.6569 64 61 64H24C19.5817 64 16 60.4183 16 56V19C16 17.3431 17.3431 16 19 16H34ZM56 16C60.4183 16 64 19.5817 64 24V37C64 38.6569 62.6569 40 61 40H43C41.3431 40 40 38.6569 40 37V19C40 17.3431 41.3431 16 43 16H56Z" fill="#202020" style="fill:#202020;fill:color(display-p3 0.1255 0.1255 0.1255);fill-opacity:1;"/>
</svg>
